<svg width="100" height="100" xmlns="http://www.w3.org/2000/svg" xml:space="preserve" version="1.1">

 <g>
  <title>Layer 1</title>
  <g id="svg_1">
   <path id="svg_2" d="m49.99756,70.65137c-2.39697,0 -4.34668,1.96679 -4.34668,4.38476s1.94971,4.38477 4.34668,4.38477s4.34717,-1.9668 4.34717,-4.38477s-1.9502,-4.38476 -4.34717,-4.38476zm0,6.76953c-1.29395,0 -2.34668,-1.06983 -2.34668,-2.38477s1.05273,-2.38476 2.34668,-2.38476c1.29443,0 2.34717,1.06982 2.34717,2.38476s-1.05274,2.38477 -2.34717,2.38477z"/>
   <path id="svg_3" d="m51.8877,34.8291c-0.59815,-0.18799 -1.23291,-0.2832 -1.8877,-0.2832c-3.62793,0 -6.57959,2.98096 -6.5752,6.74072l0.10547,1.04248c0,0.03272 0.00147,0.07373 0.00489,0.10645l2.11767,21.3706c0.02832,2.39258 1.96778,4.33057 4.34717,4.33057c2.39746,0 4.34766,-1.9668 4.34277,-4.28711l2.11426,-21.41455c0.00098,-0.01026 0.00195,-0.021 0.00244,-0.03223l0.11475,-1.10937c0.00342,-0.03418 0.00537,-0.06885 0.00537,-0.10303c0,-0.82617 -0.1499,-1.62939 -0.44092,-2.37647c-0.72168,-1.91503 -2.31592,-3.40625 -4.25097,-3.98486zm0.45996,28.92383c0,1.31445 -1.05323,2.38379 -2.34766,2.38379s-2.34766,-1.06934 -2.34766,-2.38379c0,-0.03369 -0.00146,-0.06689 -0.00488,-0.1001l-2.11719,-21.31592c0,-0.03222 -0.00146,-0.07177 -0.00439,-0.104l-0.10547,-1.04248c0,-2.56104 2.0542,-4.64453 4.57959,-4.64453c0.45068,0 0.88379,0.06445 1.30078,0.19531c1.35498,0.40527 2.46338,1.44336 2.97022,2.78857c0.19873,0.51026 0.30273,1.05274 0.3081,1.61182l-2.23144,22.61133z"/>
   <path id="svg_4" d="m89.39258,78.66064l-35.49219,-61.84033c-0.81348,-1.41699 -2.27148,-2.26367 -3.90039,-2.26367s-3.08691,0.84668 -3.90039,2.26416l-35.49219,61.83984c-0.81592,1.4209 -0.8125,3.11622 0.00879,4.53418c0.81543,1.40821 2.27002,2.24854 3.8916,2.24854l70.98438,0c1.62158,0 3.07617,-0.84033 3.8916,-2.24854c0.82129,-1.41796 0.82471,-3.11328 0.00879,-4.53418zm-1.73926,3.53223c-0.45361,0.78272 -1.26172,1.25049 -2.16113,1.25049l-70.98438,0c-0.89941,0 -1.70752,-0.46777 -2.16113,-1.25049c-0.45898,-0.79346 -0.46094,-1.7417 -0.00488,-2.53711l35.49218,-61.83935c0.45264,-0.78858 1.26221,-1.25977 2.16602,-1.25977s1.71338,0.47119 2.16602,1.25928l35.49218,61.83984c0.45606,0.79541 0.4541,1.74365 -0.00488,2.53711z"/>
  </g>
  <text id="svg_5" font-family="'Helvetica Neue', Helvetica, Arial-Unicode, Arial, Sans-serif" font-weight="bold" font-size="5px" fill="#000000" y="115" x="0">Created by Edwin PM</text>
  <text id="svg_6" font-family="'Helvetica Neue', Helvetica, Arial-Unicode, Arial, Sans-serif" font-weight="bold" font-size="5px" fill="#000000" y="120" x="0">from the Noun Project</text>
 </g>
</svg>