<svg width="100" height="100" xmlns="http://www.w3.org/2000/svg" xml:space="preserve" version="1.1">

 <g>
  <title>Layer 1</title>
  <g id="svg_1">
   <path id="svg_2" d="m46.20949,67.77049c5.5,0 10.46997,0.49005 14.71997,1.33002l-2.91998,6.41998l-17.41999,-7.56c1.79999,-0.13 3.68,-0.19 5.62,-0.19zm30.51996,11.59003c-0.01001,0.03003 -0.01996,0.07001 -0.02997,0.09997c-0.04999,0.13001 -0.09003,0.26001 -0.15003,0.38001c-0.01001,0.05005 -0.03997,0.09003 -0.05999,0.13c-0.06,0.12 -0.12,0.23999 -0.19001,0.35999c-0.01001,0.03003 -0.02996,0.05005 -0.03997,0.08002c-1.18,1.91003 -3.96003,3.75 -8.04004,5.23999c-0.06,0.02002 -0.09998,0.06 -0.14997,0.09002c-5.35003,1.94001 -12.89001,3.26001 -21.85998,3.26001c-6.24005,0 -11.77002,-0.63 -16.36005,-1.67004c-0.06994,-0.02997 -0.11999,-0.06995 -0.19,-0.07996c-7.48999,-1.71002 -12.65997,-4.58001 -13.85998,-7.55999c-0.01001,-0.02002 -0.01996,-0.04999 -0.02997,-0.07001c-0.06,-0.16998 -0.11005,-0.34003 -0.15003,-0.51001c-0.01001,-0.04999 -0.02002,-0.09003 -0.02997,-0.14002c-0.04003,-0.19 -0.05999,-0.39001 -0.05999,-0.58996c0,-0.19 0.01996,-0.39002 0.05999,-0.59003c0.00995,-0.03998 0.01996,-0.08001 0.02997,-0.13c0.03998,-0.16999 0.09003,-0.33997 0.15003,-0.51001c0.01001,-0.01996 0.01996,-0.04999 0.02997,-0.07001c1.20001,-2.97998 6.36999,-5.84998 13.85998,-7.56c0.07001,-0.00995 0.12006,-0.04999 0.19,-0.07995c1.29004,-0.29004 2.66004,-0.54999 4.10004,-0.78003l-2.76001,6.08001c-0.22998,0.5 0,1.08997 0.5,1.32001c0.13,0.06 0.27002,0.08997 0.40997,0.08997c0.38001,0 0.74005,-0.21997 0.91004,-0.58997l3.27996,-7.22003l0.06,-0.12c0.04004,0.04004 0.08002,0.07001 0.12,0.10004c0.06006,0.04999 0.12005,0.08997 0.19,0.12l20.52002,8.89996l-3.27997,7.23999c-0.23004,0.5 0,1.09003 0.5,1.32001c0.13,0.05999 0.26996,0.09002 0.40997,0.09002c0.38001,0 0.75,-0.22003 0.90998,-0.59002l7.20001,-15.87c1.89001,0.42999 3.61004,0.94 5.15002,1.5c0.04999,0.03003 0.08997,0.07001 0.14997,0.09003c4.08001,1.48999 6.86004,3.33002 8.04004,5.23999c0.01001,0.03003 0.02996,0.04999 0.03997,0.08002c0.07001,0.11999 0.13001,0.23999 0.19001,0.35998c0.02002,0.03998 0.04998,0.08002 0.05999,0.12c0.06,0.13 0.10004,0.26001 0.15003,0.39001c0.01001,0.02997 0.01996,0.07001 0.02997,0.09998c0.10003,0.32 0.15002,0.65002 0.15002,0.97003c0,0.32995 -0.04999,0.64996 -0.15002,0.97998z"/>
   <path id="svg_3" d="m83.87947,20.93052c-0.5,-0.22998 -1.09003,-0.01 -1.32001,0.49l-2.52996,5.58001l-20.51001,-8.90002c-0.13001,-0.06 -0.26001,-0.08002 -0.39002,-0.08002l2.53998,-5.60998c0.23004,-0.5 0,-1.08997 -0.5,-1.32001c-0.5,-0.22998 -1.08997,-0.01001 -1.32001,0.5l-24.92999,54.92999c0.76001,-0.10998 1.53003,-0.19995 2.32001,-0.27997l4.51001,-9.94c0.09002,0.09998 0.20001,0.17999 0.33001,0.22998l20.51001,8.90003l-0.83001,1.82c0.67999,0.13001 1.34997,0.27997 2,0.44001l20.61999,-45.44001c0.22998,-0.5 0.01001,-1.10003 -0.5,-1.32001zm-20.46002,42.68l-20.54999,-8.90997c-0.10998,-0.05005 -0.22998,-0.08002 -0.34997,-0.08002l5.03997,-11.10999c0.09003,0.09998 0.20002,0.18 0.33002,0.23999l20.5,8.89002l-4.97003,10.96997zm5.79999,-12.78998l-20.52997,-8.91003c-0.12,-0.04999 -0.25,-0.07001 -0.37,-0.08002l4.64997,-10.23999c0.09002,0.10003 0.20001,0.19 0.34002,0.25l20.48999,8.89001l-4.58001,10.09003zm5.40002,-11.91003l-20.52002,-8.90998c-0.11999,-0.04999 -0.25,-0.07001 -0.38,-0.08002l4.65002,-10.25c0.09998,0.10999 0.21002,0.20002 0.34998,0.26001l20.48004,8.89002l-4.58002,10.08997z"/>
   <path id="svg_4" d="m36.34944,68.2205l-0.06,0.12c0.06,0 0.12,-0.01001 0.18,-0.01996c-0.03998,-0.03003 -0.07996,-0.06 -0.12,-0.10004z"/>
  </g>
 </g>
</svg>