<svg width="100" height="100" xmlns="http://www.w3.org/2000/svg" xml:space="preserve" version="1.1">

 <g>
  <title>Layer 1</title>
  <g id="svg_1">
   <path id="svg_2" d="m71.38221,40.83035c3.0625,-1.98193 5.1709,-5.03369 5.93848,-8.59277c0,-0.00049 0,-0.00049 0,-0.00098c0.76562,-3.56445 0.09277,-7.21631 -1.89942,-10.28857c-0.60058,-0.91358 -1.32031,-1.76807 -2.14746,-2.55029c-0.74609,-0.68604 -1.5332,-1.27588 -2.33887,-1.75342c-1.64453,-0.97656 -3.53906,-1.60547 -5.47656,-1.81885c-3.02832,-0.34375 -5.99219,0.31494 -8.55957,1.90039l-0.38281,0.23291c-1.6543,1.06445 -3.03125,2.45606 -4.09375,4.13623l-0.2002,0.31787c-1.0664,1.79248 -1.70996,3.83545 -1.8623,5.90039c-0.16406,2.02344 0.14062,4.09912 0.87988,5.9917c0.32422,0.8584 0.75,1.69629 1.26367,2.48535c1.15235,1.79151 2.66016,3.2461 4.48047,4.32373c2.1709,1.28663 4.57715,1.92725 6.97949,1.92725c2.57911,0 5.15235,-0.73926 7.41895,-2.21094zm-17.2002,-5.12646c-0.4375,-0.67285 -0.79785,-1.38135 -1.07519,-2.11572c-0.63281,-1.62159 -0.89356,-3.38965 -0.75293,-5.12061c0.12988,-1.76465 0.67871,-3.50488 1.57324,-5.00977l0.18555,-0.29443c0.90527,-1.43164 2.07812,-2.61719 3.46289,-3.50879l0.36719,-0.22314c1.81054,-1.11768 3.84863,-1.69385 5.96093,-1.69385c0.44141,0 0.88672,0.0249 1.33301,0.07568c1.65918,0.18262 3.27637,0.71875 4.67774,1.55127c0.68652,0.40723 1.3623,0.91358 1.99609,1.4961c0.70508,0.6665 1.32324,1.40185 1.83594,2.18066c1.69726,2.61768 2.27246,5.73438 1.61914,8.77539c-0.65528,3.0376 -2.45606,5.64258 -5.07031,7.33545c-3.73731,2.42627 -8.44727,2.51855 -12.292,0.24121c-1.55078,-0.91797 -2.83496,-2.15771 -3.82129,-3.68945z"/>
   <path id="svg_3" d="m60.13612,22.06766c0.13086,0 0.26269,-0.02588 0.39062,-0.07959c0.25,-0.10645 0.50684,-0.20069 0.76953,-0.28125c0.52832,-0.16211 0.8252,-0.72168 0.66309,-1.24951s-0.7207,-0.82618 -1.24903,-0.6626c-0.3291,0.10107 -0.65039,0.21875 -0.96484,0.35156c-0.50781,0.21582 -0.74609,0.80274 -0.53027,1.31104c0.16211,0.38134 0.53222,0.61035 0.9209,0.61035z"/>
   <path id="svg_4" d="m64.65272,38.4451c0,-0.55225 -0.44727,-1 -1,-1c-4.42676,0 -8.02832,-3.60889 -8.02832,-8.04492c0,-2.23926 0.94336,-4.39551 2.58691,-5.91504c0.40527,-0.375 0.43067,-1.00781 0.05567,-1.41309c-0.37696,-0.40674 -1.00879,-0.43066 -1.41309,-0.05566c-2.05273,1.89697 -3.22949,4.58838 -3.22949,7.38379c0,5.53857 4.49902,10.04492 10.02832,10.04492c0.55273,0 1,-0.44775 1,-1z"/>
   <path id="svg_5" d="m89.83924,59.41336l-6.32104,-9.75372l0.28979,-0.25312c0.42969,-0.37841 0.67285,-0.92431 0.66895,-1.49755c-0.00391,-0.57471 -0.25586,-1.11768 -0.69043,-1.48975c-0.05469,-0.04639 -0.11328,-0.08643 -0.17578,-0.12061l-6.43262,-3.46875c-0.28589,-0.15301 -0.60523,-0.13879 -0.87915,-0.01538l-0.60132,-0.92749c-0.01025,-0.0158 -0.02686,-0.02374 -0.03784,-0.03875c5.94385,-5.56092 7.1726,-14.79627 2.65991,-21.75275c-0.72949,-1.13867 -1.62598,-2.21387 -2.66699,-3.19482c-2.64844,-2.49463 -6.12891,-4.0962 -9.80274,-4.51026c-3.79199,-0.42334 -7.5166,0.40381 -10.74804,2.38281c-0.14942,0.08692 -0.29786,0.17432 -0.44629,0.27344c-0.02832,0.01904 -0.05567,0.03955 -0.08203,0.06104c-2.04981,1.33642 -3.75391,3.06787 -5.05176,5.12548c-0.10645,0.1587 -0.19824,0.30518 -0.25781,0.417c-1.33692,2.23877 -2.14747,4.7959 -2.34473,7.39258c-0.20313,2.58837 0.16797,5.11181 1.09863,7.48632c0.41992,1.11768 0.95801,2.17481 1.5918,3.13428c1.10504,1.70801 2.48981,3.18689 4.08655,4.38672l-16.30725,0c-0.20411,0 -0.40235,0.06201 -0.57032,0.17822l-13.9403,9.66797l-1.87122,0c-0.22559,0 -0.44434,0.07617 -0.62109,0.21631l-9.7959,7.76074c-0.03028,0.02393 -0.05957,0.05029 -0.08692,0.07764c-0.48047,0.48193 -0.63086,1.17724 -0.39258,1.81445c0.23829,0.63867 0.8086,1.06592 1.44336,1.11035l10.50586,1.22419l0,11.33343c0,1.99414 1.41602,3.73145 3.35254,4.12744l32.51172,7.1333c0.07031,0.01563 0.14258,0.02344 0.21387,0.02344c0.12555,0 0.24762,-0.02905 0.3642,-0.07495c0.03668,-0.01441 0.06744,-0.03797 0.10235,-0.05676c0.05402,-0.02893 0.11176,-0.04999 0.1604,-0.08899c0.01795,-0.01447 0.02509,-0.03736 0.04187,-0.05292c0.01892,-0.01727 0.04389,-0.02435 0.06165,-0.04327l14.46484,-15.46485c1.40918,-1.48681 2.18555,-3.44433 2.18555,-5.51269l0,-9.39533l5.32519,8.22101c0.14356,0.22266 0.3711,0.37891 0.62989,0.43457c0.06933,0.01465 0.13964,0.02197 0.20898,0.02197c0.19141,0 0.38086,-0.05517 0.54395,-0.16113l7.31738,-4.74805c0.46387,-0.30029 0.5957,-0.91943 0.29492,-1.38281zm-7.42114,-11.44891l-0.03601,-0.05555l0.06164,0.03327l-0.02563,0.02228zm-6.24548,-1.66907l-1.73499,1.11999l-2.0498,-3.16217c0.2937,-0.1668 0.58593,-0.33752 0.87231,-0.52294c0.34228,-0.2212 0.61243,-0.41358 0.86011,-0.60059l2.05237,3.16571zm-2.29004,9.10907c-0.00623,0.00513 -0.0138,0.00751 -0.0199,0.01282l-6.02832,5.24902l-8.13324,-6.80597l9.43963,-8.19379c0.48877,-0.15228 0.97071,-0.33245 1.44751,-0.53265c0.00904,0.01587 0.00953,0.034 0.01954,0.0495l2.31201,3.56665c-0.27869,0.40314 -0.47974,0.85883 -0.58448,1.35181c-0.20996,0.98779 -0.01757,1.99853 0.53614,2.83886l1.38513,2.13837l-0.37402,0.32538zm-22.599,-17.83533c-0.55762,-0.84326 -1.02637,-1.7666 -1.39942,-2.75683c-0.82324,-2.10352 -1.15039,-4.32813 -0.9707,-6.61573c0.1748,-2.29199 0.88965,-4.54687 2.08691,-6.55566c0.05176,-0.09473 0.11231,-0.18945 0.19727,-0.31641c1.17187,-1.8584 2.69824,-3.40039 4.53418,-4.58398c0.03418,-0.02197 0.06641,-0.0459 0.09766,-0.07178c0.09277,-0.05957 0.18847,-0.11474 0.29785,-0.17822c2.86621,-1.75635 6.15332,-2.48535 9.49902,-2.11279c3.24609,0.36572 6.31934,1.7788 8.65527,3.97851c0.92188,0.86914 1.71387,1.81787 2.3545,2.81983c0.00195,0.00195 0.00293,0.0039 0.0039,0.00586c4.25684,6.55859 2.73242,15.41357 -3.49121,20.17529c-0.27148,0.21924 -0.57226,0.4331 -0.97558,0.69385c-1.21094,0.78515 -2.49707,1.38134 -3.83204,1.77539c-3.49414,1.0664 -7.25488,0.8208 -10.59082,-0.68848c-2.64062,-1.18555 -4.875,-3.1084 -6.46679,-5.56885zm-13.58203,7.48096l19.45556,0c2.16559,0.94305 4.48145,1.43018 6.80518,1.43018c0.41437,0 0.82892,-0.01545 1.2428,-0.04578l-7.44428,6.46179l-31.37207,0l11.31281,-7.84619zm-16.34668,9.84619l34.65039,0l-7.29401,8.76892l-1.91602,2.30335l-34.36322,-4.00293l8.92286,-7.06934zm2.70507,21.53711l0,-10.94824l23.04786,2.53369c0.00286,0.0003 0.00549,-0.00037 0.00836,-0.00006c0.03393,0.00342 0.06793,0.00592 0.10101,0.00592c0.01135,0 0.02124,-0.00684 0.03253,-0.0072c0.13538,-0.00354 0.26465,-0.03058 0.38318,-0.08527c0.0069,-0.00317 0.0127,-0.00769 0.01953,-0.01099c0.12586,-0.06164 0.24109,-0.14526 0.33332,-0.25689l9.15234,-11.00238l0,28.81244l-31.31152,-6.86963c-1.02344,-0.20948 -1.76661,-1.12305 -1.76661,-2.17139zm47.81739,-5.86865l-12.73926,13.61963l0,-28.18701l8.06738,6.75097c0.09351,0.07825 0.19806,0.13635 0.3078,0.17517c0.0445,0.01581 0.09149,0.01447 0.13727,0.02375c0.06549,0.01324 0.13007,0.03399 0.19653,0.03399c0.00153,0 0.00306,-0.00079 0.00458,-0.00079c0.09338,-0.00037 0.18469,-0.02252 0.27484,-0.04889c0.02222,-0.00653 0.04584,-0.00452 0.06763,-0.01257c0.1109,-0.04102 0.216,-0.10163 0.3092,-0.18335l5.01563,-4.36359l0,8.05109c0,1.5542 -0.58106,3.02295 -1.6416,4.1416zm10.10058,-7.24317l-7.43164,-11.47509c-0.26172,-0.39698 -0.35254,-0.86914 -0.25488,-1.32911c0.09863,-0.4624 0.375,-0.85937 0.77832,-1.11767c0.03027,-0.01904 0.06641,-0.04736 0.10156,-0.07764l2.54883,-1.64551c0.39844,-0.26074 0.87793,-0.34961 1.34473,-0.24853c0.46679,0.1001 0.86523,0.37451 1.12695,0.78174l7.42578,11.45263l-5.63965,3.65918z"/>
  </g>
  <text id="svg_6" font-family="'Helvetica Neue', Helvetica, Arial-Unicode, Arial, Sans-serif" font-weight="bold" font-size="5px" fill="#000000" y="115" x="0">Created by Edwin PM</text>
  <text id="svg_7" font-family="'Helvetica Neue', Helvetica, Arial-Unicode, Arial, Sans-serif" font-weight="bold" font-size="5px" fill="#000000" y="120" x="0">from the Noun Project</text>
 </g>
</svg>